<svg width="150" height="44" viewBox="0 0 150 44" fill="none" xmlns="http://www.w3.org/2000/svg">
<path d="M19.172 1.46135V28.0314H14.8708L14.3373 26.6365C12.7369 27.8321 10.9364 28.4299 8.9358 28.4299C7.17976 28.4299 5.62378 28.0646 4.26785 27.3339C2.93414 26.5811 1.88941 25.474 1.13365 24.0127C0.377882 22.5513 0 20.7578 0 18.6322C0 15.1339 0.989162 12.6208 2.96749 11.093C4.94581 9.54307 7.57987 8.76811 10.8697 8.76811C11.7143 8.76811 12.5479 8.84561 13.3704 9.0006V1.46135H19.172ZM5.86829 18.6322C5.86829 22.3963 7.11307 24.2784 9.60265 24.2784C10.3584 24.2784 11.0253 24.2009 11.6032 24.0459C12.2034 23.8909 12.7924 23.6363 13.3704 23.282V13.1522C12.6368 12.9972 11.9255 12.9197 11.2364 12.9197C9.41371 12.9197 8.05778 13.3957 7.16865 14.3478C6.30174 15.2778 5.86829 16.7059 5.86829 18.6322Z" fill="white"/>
<path d="M27.418 6.64251C26.5066 6.64251 25.7175 6.32146 25.0507 5.67935C24.406 5.0151 24.0837 4.22907 24.0837 3.32126C24.0837 2.41345 24.406 1.63849 25.0507 0.996378C25.7175 0.332126 26.5066 0 27.418 0C28.3293 0 29.1073 0.332126 29.752 0.996378C30.4188 1.63849 30.7522 2.41345 30.7522 3.32126C30.7522 4.22907 30.4188 5.0151 29.752 5.67935C29.1073 6.32146 28.3293 6.64251 27.418 6.64251ZM24.5172 9.16666H30.3188V28.0314H24.5172V9.16666Z" fill="white"/>
<path d="M41.0546 28.4299C39.8542 28.4299 38.6539 28.3082 37.4536 28.0646C36.2532 27.8432 35.2085 27.5553 34.3194 27.2011L35.4197 23.2156C37.4869 23.9241 39.343 24.2784 40.9879 24.2784C43.1663 24.2784 44.2554 23.747 44.2554 22.6842C44.2554 22.2192 43.9776 21.8317 43.4219 21.5217C42.8662 21.1896 41.9882 20.8132 40.7878 20.3925C39.5208 19.9497 38.4761 19.5401 37.6536 19.1636C36.8534 18.7651 36.1532 18.2226 35.553 17.5362C34.9751 16.8498 34.6861 15.9974 34.6861 14.9789C34.6861 12.9418 35.4308 11.403 36.9201 10.3623C38.4316 9.29951 40.5211 8.76811 43.1885 8.76811C44.1888 8.76811 45.2224 8.86775 46.2893 9.06703C47.3785 9.24416 48.3121 9.49879 49.0901 9.83092L47.9898 13.8164C46.256 13.2186 44.7111 12.9197 43.3552 12.9197C41.3991 12.9197 40.4211 13.3736 40.4211 14.2814C40.4211 14.7464 40.6767 15.1228 41.1879 15.4106C41.6992 15.6985 42.5327 16.0306 43.6886 16.407C44.9779 16.8277 46.0448 17.2373 46.8895 17.6359C47.7342 18.0344 48.4566 18.6101 49.0568 19.3629C49.6792 20.1157 49.9904 21.09 49.9904 22.2856C49.9904 24.2341 49.2346 25.7508 47.7231 26.8357C46.2115 27.8985 43.9887 28.4299 41.0546 28.4299Z" fill="white"/>
<path d="M64.2211 8.76811C65.9771 8.76811 67.522 9.15559 68.8557 9.93055C70.2117 10.7055 71.2675 11.8458 72.0233 13.3514C72.779 14.8349 73.1569 16.6284 73.1569 18.7319C73.1569 22.0974 72.1566 24.5551 70.1561 26.1051C68.1778 27.655 65.5548 28.4299 62.2873 28.4299C61.4426 28.4299 60.609 28.3524 59.7866 28.1975V35.7367H53.985V9.16666H58.2861L58.8196 10.5616C60.4201 9.36594 62.2206 8.76811 64.2211 8.76811ZM61.9205 24.2784C63.7432 24.2784 65.088 23.8134 65.9549 22.8834C66.8441 21.9314 67.2886 20.4921 67.2886 18.5658C67.2886 14.8017 66.0438 12.9197 63.5543 12.9197C62.7985 12.9197 62.1205 12.9972 61.5204 13.1522C60.9424 13.3072 60.3645 13.5618 59.7866 13.9161V24.0459C60.5201 24.2009 61.2314 24.2784 61.9205 24.2784Z" fill="white"/>
<path d="M94.94 27.8321C94.2287 27.9871 93.5952 28.0978 93.0395 28.1642C92.506 28.2307 91.8725 28.2639 91.139 28.2639C89.005 28.2639 87.6046 27.5775 86.9378 26.2047C86.0042 26.8911 85.0706 27.4114 84.137 27.7657C83.2034 28.12 82.1809 28.2971 81.0695 28.2971C80.0692 28.2971 79.169 28.0867 78.3688 27.6661C77.5686 27.2454 76.9462 26.6807 76.5016 25.9722C76.057 25.2637 75.8347 24.4887 75.8347 23.6473C75.8347 22.2303 76.1904 21.1121 76.9017 20.2929C77.6352 19.4515 78.6133 18.7872 79.8358 18.3001C81.0584 17.7909 82.9145 17.182 85.404 16.4734L86.4043 16.1745V16.0417C86.4043 14.0046 85.4707 12.9861 83.6035 12.9861C82.6922 12.9861 81.7141 13.1854 80.6694 13.5839C79.6247 13.9825 78.4243 14.6246 77.0684 15.5103L75.9681 11.5248C77.4796 10.6612 79.0134 9.98591 80.5694 9.49879C82.1476 9.01167 83.8147 8.76811 85.5708 8.76811C87.7047 8.76811 89.3385 9.3438 90.4721 10.4952C91.628 11.6465 92.2059 13.6171 92.2059 16.407V22.7174C92.2059 23.2045 92.3059 23.5588 92.506 23.7802C92.7061 23.9795 93.0284 24.0791 93.4729 24.0791C93.8953 24.0791 94.3176 24.0237 94.74 23.913L94.94 27.8321ZM81.6363 22.8834C81.6363 23.3263 81.7475 23.6473 81.9698 23.8466C82.2143 24.0459 82.5922 24.1455 83.1034 24.1455C84.037 24.1455 85.1373 23.747 86.4043 22.9499V19.4293L85.9042 19.5954C84.2371 20.1932 83.1034 20.7246 82.5032 21.1896C81.9253 21.6324 81.6363 22.1971 81.6363 22.8834Z" fill="white"/>
<path d="M110.451 26.8025C109.784 27.2675 108.984 27.6328 108.051 27.8985C107.139 28.1421 106.25 28.2639 105.383 28.2639C103.027 28.2639 101.271 27.7546 100.115 26.7361C98.9593 25.6954 98.3813 24.212 98.3813 22.2856V13.2518H95.5472V10.8273L99.1149 9.39915L100.715 4.31763H104.183V9.16666H109.518V13.2518H104.183V20.8907C104.183 22.0642 104.372 22.8945 104.75 23.3816C105.128 23.8688 105.694 24.1123 106.45 24.1123C107.428 24.1123 108.462 23.8245 109.551 23.2488L110.451 26.8025Z" fill="white"/>
<path d="M122.5 28.4299C120.278 28.4299 118.422 28.0093 116.932 27.1679C115.443 26.3043 114.332 25.1419 113.598 23.6805C112.887 22.1971 112.531 20.5143 112.531 18.6322C112.531 16.8166 112.898 15.1671 113.631 13.6836C114.365 12.2001 115.51 11.0155 117.066 10.1298C118.622 9.22202 120.6 8.76811 123.001 8.76811C123.868 8.76811 124.801 8.86775 125.801 9.06703C126.802 9.2663 127.613 9.52093 128.235 9.83092L127.135 13.8164C125.646 13.2186 124.268 12.9197 123.001 12.9197C121.534 12.9197 120.4 13.4068 119.6 14.381C118.799 15.3331 118.399 16.7391 118.399 18.599C118.399 20.4589 118.755 21.876 119.466 22.8502C120.178 23.8023 121.189 24.2784 122.5 24.2784C123.39 24.2784 124.201 24.1455 124.934 23.8798C125.668 23.6141 126.502 23.2156 127.435 22.6842L129.002 26.3376C128.224 26.9354 127.257 27.4336 126.101 27.8321C124.968 28.2307 123.767 28.4299 122.5 28.4299Z" fill="white"/>
<path d="M143.465 8.76811C145.932 8.76811 147.633 9.42129 148.566 10.7277C149.522 12.034 150 13.9161 150 16.3738V28.0314H144.198V17.1045C144.198 15.5545 144.009 14.4807 143.632 13.8828C143.276 13.285 142.576 12.9861 141.531 12.9861C140.397 12.9861 139.241 13.3625 138.063 14.1153V28.0314H132.262V1.46135H138.063V10.2295C139.908 9.25523 141.709 8.76811 143.465 8.76811Z" fill="white"/>
<path d="M96.3423 33H99.5432V34.3351H96.3423V43.6413H94.5618V34.3351H92.8613V33.5779L94.5618 33.0996V32.0236C94.5618 30.6153 94.8619 29.5393 95.462 28.7953C96.0755 28.038 97.0158 27.6594 98.2828 27.6594C98.6829 27.6594 99.1164 27.7126 99.5832 27.8188L99.3631 29.154C99.0297 29.0876 98.7229 29.0544 98.4429 29.0544C97.7093 29.0544 97.1759 29.3001 96.8424 29.7917C96.509 30.2832 96.3423 31.0405 96.3423 32.0634V33Z" fill="white"/>
<path d="M105.852 44C104.731 44 103.785 43.7476 103.011 43.2428C102.237 42.7379 101.657 42.0604 101.271 41.2101C100.897 40.3466 100.71 39.3901 100.71 38.3406C100.71 37.2778 100.897 36.3146 101.271 35.4511C101.657 34.5876 102.237 33.9034 103.011 33.3986C103.785 32.8937 104.731 32.6413 105.852 32.6413C106.959 32.6413 107.899 32.9004 108.673 33.4185C109.446 33.9366 110.02 34.6274 110.393 35.4909C110.78 36.3412 110.973 37.2778 110.973 38.3007C110.973 39.337 110.78 40.2868 110.393 41.1504C110.02 42.0139 109.446 42.7047 108.673 43.2228C107.899 43.7409 106.959 44 105.852 44ZM105.832 42.625C106.899 42.625 107.719 42.2397 108.292 41.4692C108.866 40.6854 109.153 39.6359 109.153 38.3207C109.153 37.0187 108.866 35.9758 108.292 35.192C107.719 34.4082 106.899 34.0163 105.832 34.0163C104.765 34.0163 103.945 34.4082 103.371 35.192C102.811 35.9758 102.531 37.0187 102.531 38.3207C102.531 39.6359 102.811 40.6854 103.371 41.4692C103.945 42.2397 104.765 42.625 105.832 42.625Z" fill="white"/>
<path d="M119.364 34.3152C118.724 34.3152 118.11 34.4281 117.523 34.654C116.95 34.8665 116.303 35.2651 115.583 35.8496V43.6413H113.802V33H115.183L115.503 34.4348C116.156 33.7838 116.79 33.3255 117.403 33.0598C118.03 32.7941 118.684 32.6612 119.364 32.6612V34.3152Z" fill="white"/>
<path d="M130.234 33V43.6413H128.854L128.594 42.5254C127.3 43.5085 126.046 44 124.833 44C123.659 44 122.846 43.6944 122.392 43.0833C121.952 42.4589 121.732 41.5688 121.732 40.413V33H123.512V40.2536C123.512 41.0906 123.646 41.6884 123.913 42.0471C124.179 42.4058 124.639 42.5851 125.293 42.5851C125.786 42.5851 126.287 42.4722 126.793 42.2464C127.3 42.0205 127.854 41.6751 128.454 41.2101V33H130.234Z" fill="white"/>
<path d="M145.687 32.6413C146.82 32.6413 147.594 32.9469 148.007 33.558C148.434 34.1691 148.647 35.0592 148.647 36.2283V43.6413H146.867V36.3877C146.867 35.5507 146.74 34.9529 146.487 34.5942C146.247 34.2355 145.827 34.0562 145.226 34.0562C144.76 34.0562 144.286 34.1757 143.806 34.4149C143.326 34.6407 142.786 34.9861 142.186 35.4511C142.212 35.6105 142.226 35.8696 142.226 36.2283V43.6413H140.445V36.3877C140.445 35.5507 140.318 34.9529 140.065 34.5942C139.825 34.2355 139.405 34.0562 138.805 34.0562C138.351 34.0562 137.884 34.1691 137.404 34.3949C136.924 34.6208 136.384 34.9662 135.784 35.4312V43.6413H134.003V33H135.384L135.644 34.1159C136.924 33.1329 138.131 32.6413 139.265 32.6413C139.998 32.6413 140.578 32.7742 141.005 33.0399C141.432 33.3056 141.745 33.6908 141.945 34.1957C143.279 33.1594 144.526 32.6413 145.687 32.6413Z" fill="white"/>
</svg>
