<svg width="620" height="108" viewBox="0 0 620 108" fill="none" xmlns="http://www.w3.org/2000/svg">
<path d="M57.5159 4.38406V84.0942H44.6123L43.0119 79.9094C38.2106 83.4964 32.8091 85.2899 26.8074 85.2899C21.5393 85.2899 16.8713 84.1938 12.8035 82.0018C8.80243 79.7434 5.66823 76.4221 3.40094 72.038C1.13365 67.654 0 62.2736 0 55.8967C0 45.4016 2.96749 37.8623 8.90246 33.279C14.8374 28.6292 22.7396 26.3043 32.609 26.3043C35.143 26.3043 37.6437 26.5368 40.1111 27.0018V4.38406H57.5159ZM17.6049 55.8967C17.6049 67.189 21.3392 72.8352 28.808 72.8352C31.0752 72.8352 33.0758 72.6027 34.8096 72.1377C36.6101 71.6727 38.3773 70.9088 40.1111 69.846V39.4565C37.9105 38.9915 35.7765 38.7591 33.7093 38.7591C28.2411 38.7591 24.1733 40.1872 21.5059 43.0435C18.9052 45.8333 17.6049 50.1178 17.6049 55.8967Z" fill="white"/>
<path d="M82.254 19.9275C79.5199 19.9275 77.1525 18.9644 75.152 17.038C73.2181 15.0453 72.2512 12.6872 72.2512 9.96377C72.2512 7.24034 73.2181 4.91546 75.152 2.98913C77.1525 0.996378 79.5199 0 82.254 0C84.988 0 87.322 0.996378 89.2559 2.98913C91.2564 4.91546 92.2567 7.24034 92.2567 9.96377C92.2567 12.6872 91.2564 15.0453 89.2559 17.038C87.322 18.9644 84.988 19.9275 82.254 19.9275ZM73.5516 27.5H90.9564V84.0942H73.5516V27.5Z" fill="white"/>
<path d="M123.164 85.2899C119.563 85.2899 115.962 84.9245 112.361 84.1938C108.76 83.5296 105.626 82.6661 102.958 81.6033L106.259 69.6467C112.461 71.7723 118.029 72.8352 122.964 72.8352C129.499 72.8352 132.766 71.2409 132.766 68.0525C132.766 66.6576 131.933 65.4952 130.266 64.5652C128.599 63.5688 125.964 62.4396 122.363 61.1775C118.562 59.849 115.428 58.6202 112.961 57.4909C110.56 56.2953 108.46 54.6679 106.659 52.6087C104.925 50.5495 104.058 47.9922 104.058 44.9366C104.058 38.8255 106.292 34.2089 110.76 31.087C115.295 27.8986 121.563 26.3043 129.565 26.3043C132.566 26.3043 135.667 26.6033 138.868 27.2011C142.136 27.7325 144.936 28.4964 147.27 29.4928L143.969 41.4493C138.768 39.6558 134.133 38.7591 130.066 38.7591C124.197 38.7591 121.263 40.1208 121.263 42.8442C121.263 44.2391 122.03 45.3684 123.564 46.2319C125.098 47.0954 127.598 48.0918 131.066 49.221C134.934 50.4831 138.134 51.712 140.669 52.9076C143.203 54.1033 145.37 55.8303 147.17 58.0888C149.037 60.3472 149.971 63.2699 149.971 66.8569C149.971 72.7023 147.704 77.2524 143.169 80.5072C138.635 83.6957 131.966 85.2899 123.164 85.2899Z" fill="white"/>
<path d="M192.663 26.3043C197.931 26.3043 202.566 27.4668 206.567 29.7917C210.635 32.1165 213.803 35.5374 216.07 40.0543C218.337 44.5048 219.471 49.8853 219.471 56.1957C219.471 66.2923 216.47 73.6655 210.468 78.3152C204.533 82.965 196.664 85.2899 186.862 85.2899C184.328 85.2899 181.827 85.0574 179.36 84.5924V107.21H161.955V27.5H174.858L176.459 31.6848C181.26 28.0978 186.662 26.3043 192.663 26.3043ZM185.761 72.8352C191.23 72.8352 195.264 71.4402 197.865 68.6504C200.532 65.7941 201.866 61.4765 201.866 55.6975C201.866 44.4052 198.132 38.7591 190.663 38.7591C188.395 38.7591 186.362 38.9915 184.561 39.4565C182.827 39.9215 181.093 40.6854 179.36 41.7482V72.1377C181.56 72.6027 183.694 72.8352 185.761 72.8352Z" fill="white"/>
<path d="M284.82 83.4964C282.686 83.9614 280.786 84.2935 279.118 84.4928C277.518 84.692 275.617 84.7917 273.417 84.7917C267.015 84.7917 262.814 82.7325 260.813 78.6141C258.013 80.6733 255.212 82.2343 252.411 83.2971C249.61 84.3599 246.543 84.8913 243.209 84.8913C240.208 84.8913 237.507 84.2603 235.106 82.9982C232.706 81.7361 230.838 80.0423 229.505 77.9167C228.171 75.7911 227.504 73.4662 227.504 70.942C227.504 66.6908 228.571 63.3364 230.705 60.8786C232.906 58.3545 235.84 56.3617 239.508 54.9004C243.175 53.3726 248.743 51.5459 256.212 49.4203L259.213 48.5236V48.125C259.213 42.0139 256.412 38.9583 250.811 38.9583C248.077 38.9583 245.142 39.5562 242.008 40.7518C238.874 41.9475 235.273 43.8738 231.205 46.5308L227.904 34.5743C232.439 31.9837 237.04 29.9577 241.708 28.4964C246.443 27.035 251.444 26.3043 256.712 26.3043C263.114 26.3043 268.015 28.0314 271.416 31.4855C274.884 34.9396 276.618 40.8515 276.618 49.221V68.1522C276.618 69.6135 276.918 70.6763 277.518 71.3406C278.118 71.9384 279.085 72.2373 280.419 72.2373C281.686 72.2373 282.953 72.0713 284.22 71.7391L284.82 83.4964ZM244.909 68.6504C244.909 69.9789 245.242 70.942 245.909 71.5399C246.643 72.1377 247.776 72.4366 249.31 72.4366C252.111 72.4366 255.412 71.2409 259.213 68.8496V58.288L257.713 58.7862C252.711 60.5797 249.31 62.1739 247.51 63.5688C245.776 64.8973 244.909 66.5912 244.909 68.6504Z" fill="white"/>
<path d="M331.354 80.4076C329.353 81.8025 326.953 82.8986 324.152 83.6957C321.418 84.4263 318.75 84.7917 316.15 84.7917C309.081 84.7917 303.813 83.2639 300.345 80.2083C296.878 77.0864 295.144 72.6359 295.144 66.8569V39.7554H286.642V32.4819L297.345 28.1975L302.146 12.9529H312.549V27.5H328.553V39.7554H312.549V62.6721C312.549 66.1926 313.116 68.6836 314.249 70.1449C315.383 71.6063 317.083 72.337 319.351 72.337C322.285 72.337 325.386 71.4734 328.653 69.7464L331.354 80.4076Z" fill="white"/>
<path d="M367.501 85.2899C360.833 85.2899 355.265 84.0278 350.797 81.5036C346.329 78.913 342.995 75.4257 340.794 71.0417C338.66 66.5912 337.593 61.5429 337.593 55.8967C337.593 50.4499 338.693 45.5012 340.894 41.0507C343.095 36.6002 346.529 33.0465 351.197 30.3895C355.865 27.6661 361.8 26.3043 369.002 26.3043C371.603 26.3043 374.403 26.6033 377.404 27.2011C380.405 27.7989 382.839 28.5628 384.706 29.4928L381.405 41.4493C376.937 39.6558 372.803 38.7591 369.002 38.7591C364.601 38.7591 361.2 40.2204 358.799 43.1431C356.398 45.9994 355.198 50.2174 355.198 55.7971C355.198 61.3768 356.265 65.628 358.399 68.5507C360.533 71.407 363.567 72.8352 367.501 72.8352C370.169 72.8352 372.603 72.4366 374.803 71.6395C377.004 70.8424 379.505 69.6467 382.306 68.0525L387.007 79.0127C384.673 80.8062 381.772 82.3007 378.304 83.4964C374.903 84.692 371.302 85.2899 367.501 85.2899Z" fill="white"/>
<path d="M430.395 26.3043C437.797 26.3043 442.898 28.2639 445.699 32.183C448.566 36.1021 450 41.7482 450 49.1214V84.0942H432.595V51.3134C432.595 46.6637 432.028 43.442 430.895 41.6486C429.828 39.8551 427.727 38.9583 424.593 38.9583C421.192 38.9583 417.724 40.0876 414.19 42.346V84.0942H396.785V4.38406H414.19V30.6884C419.725 27.7657 425.126 26.3043 430.395 26.3043Z" fill="white"/>
<path d="M469.421 41.8152C468.501 41.8152 467.7 41.4964 467.02 40.8587C466.34 40.1812 466 39.3841 466 38.4674C466 37.5109 466.34 36.6938 467.02 36.0163C467.7 35.3388 468.501 35 469.421 35C470.381 35 471.201 35.3388 471.882 36.0163C472.562 36.6938 472.902 37.5109 472.902 38.4674C472.902 39.3841 472.562 40.1812 471.882 40.8587C471.201 41.4964 470.381 41.8152 469.421 41.8152ZM466.78 51.6793H472.122V83.6033H466.78V51.6793Z" fill="white"/>
<path d="M500.032 50.6033C503.553 50.6033 505.973 51.5399 507.294 53.413C508.654 55.2464 509.334 57.8967 509.334 61.3641V83.6033H503.993V61.8424C503.993 59.3315 503.593 57.538 502.793 56.462C501.992 55.3859 500.612 54.8478 498.651 54.8478C497.171 54.8478 495.671 55.1866 494.15 55.8641C492.63 56.5417 490.969 57.5779 489.169 58.9728V83.6033H483.827V51.6793H487.968L488.749 55.0272C492.63 52.0779 496.391 50.6033 500.032 50.6033Z" fill="white"/>
<path d="M534.745 50.6033C537.386 50.6033 539.707 51.2409 541.707 52.5163C543.708 53.7917 545.268 55.6649 546.388 58.1359C547.509 60.567 548.069 63.4964 548.069 66.9239C548.069 70.7899 547.389 74.038 546.028 76.6685C544.708 79.2989 542.867 81.2717 540.507 82.587C538.186 83.9022 535.545 84.5598 532.585 84.5598C529.624 84.5598 526.923 83.7627 524.482 82.1685L523.642 83.6631H520.341V35.7772H525.683V53.712C528.363 51.6395 531.384 50.6033 534.745 50.6033ZM532.165 80.4946C535.725 80.4946 538.346 79.2989 540.027 76.9076C541.747 74.4765 542.607 71.1486 542.607 66.9239C542.607 62.6594 541.807 59.5707 540.207 57.6576C538.646 55.7047 536.706 54.7283 534.385 54.7283C532.665 54.7283 531.144 54.9873 529.824 55.5054C528.544 55.9837 527.163 56.8007 525.683 57.9565V78.7609C527.643 79.9167 529.804 80.4946 532.165 80.4946Z" fill="white"/>
<path d="M569.107 84.6794C565.746 84.6794 562.905 83.9221 560.585 82.4076C558.264 80.8931 556.524 78.8605 555.363 76.3098C554.243 73.7192 553.683 70.8496 553.683 67.7011C553.683 64.5127 554.243 61.6232 555.363 59.0326C556.524 56.442 558.264 54.3895 560.585 52.875C562.905 51.3605 565.746 50.6033 569.107 50.6033C572.428 50.6033 575.249 51.3804 577.569 52.9348C579.89 54.4891 581.611 56.5616 582.731 59.1522C583.891 61.7029 584.471 64.5127 584.471 67.5815C584.471 70.6902 583.891 73.5399 582.731 76.1304C581.611 78.721 579.89 80.7935 577.569 82.3478C575.249 83.9022 572.428 84.6794 569.107 84.6794ZM569.047 80.5544C572.248 80.5544 574.709 79.3986 576.429 77.087C578.15 74.7355 579.01 71.587 579.01 67.6413C579.01 63.7355 578.15 60.6069 576.429 58.2554C574.709 55.904 572.248 54.7283 569.047 54.7283C565.846 54.7283 563.385 55.904 561.665 58.2554C559.985 60.6069 559.144 63.7355 559.144 67.6413C559.144 71.587 559.985 74.7355 561.665 77.087C563.385 79.3986 565.846 80.5544 569.047 80.5544Z" fill="white"/>
<path d="M613.665 83.6033L604.242 70.3315L594.819 83.6033H588.698L600.941 66.9837L589.778 51.6793H595.96L604.362 63.6957L612.704 51.6793H618.766L607.603 66.9239L619.966 83.6033H613.665Z" fill="white"/>
</svg>
