<svg width="10" height="12" viewBox="0 0 10 12" fill="none" xmlns="http://www.w3.org/2000/svg">
<path fill-rule="evenodd" clip-rule="evenodd" d="M7.14645 0.146447C7.34171 -0.0488155 7.65829 -0.0488155 7.85355 0.146447L9.85355 2.14645C10.0488 2.34171 10.0488 2.65829 9.85355 2.85355L7.85355 4.85355C7.65829 5.04882 7.34171 5.04882 7.14645 4.85355C6.95118 4.65829 6.95118 4.34171 7.14645 4.14645L8.79289 2.5L7.14645 0.853553C6.95118 0.658291 6.95118 0.341709 7.14645 0.146447Z" fill="#999999"/>
<path fill-rule="evenodd" clip-rule="evenodd" d="M2.5 3C2.10218 3 1.72064 3.15804 1.43934 3.43934C1.15804 3.72064 1 4.10218 1 4.5V5.5C1 5.77614 0.776142 6 0.5 6C0.223858 6 7.45058e-09 5.77614 7.45058e-09 5.5V4.5C7.45058e-09 3.83696 0.263392 3.20107 0.732233 2.73223C1.20107 2.26339 1.83696 2 2.5 2H9.5C9.77614 2 10 2.22386 10 2.5C10 2.77614 9.77614 3 9.5 3H2.5Z" fill="#999999"/>
<path fill-rule="evenodd" clip-rule="evenodd" d="M2.85355 7.14645C3.04882 7.34171 3.04882 7.65829 2.85355 7.85355L1.20711 9.5L2.85355 11.1464C3.04882 11.3417 3.04882 11.6583 2.85355 11.8536C2.65829 12.0488 2.34171 12.0488 2.14645 11.8536L0.146447 9.85355C-0.0488155 9.65829 -0.0488155 9.34171 0.146447 9.14645L2.14645 7.14645C2.34171 6.95118 2.65829 6.95118 2.85355 7.14645Z" fill="#999999"/>
<path fill-rule="evenodd" clip-rule="evenodd" d="M9.5 6C9.77614 6 10 6.22386 10 6.5V7.5C10 8.16304 9.73661 8.79893 9.26777 9.26777C8.79893 9.73661 8.16304 10 7.5 10H0.5C0.223858 10 7.45058e-09 9.77614 7.45058e-09 9.5C7.45058e-09 9.22386 0.223858 9 0.5 9H7.5C7.89782 9 8.27936 8.84196 8.56066 8.56066C8.84196 8.27936 9 7.89782 9 7.5V6.5C9 6.22386 9.22386 6 9.5 6Z" fill="#999999"/>
</svg>
