<svg width="14" height="14" viewBox="0 0 14 14" fill="none" xmlns="http://www.w3.org/2000/svg">
<path fill-rule="evenodd" clip-rule="evenodd" d="M5.28033 0.46967C5.57322 0.762563 5.57322 1.23744 5.28033 1.53033L2.81066 4H10C10.9946 4 11.9484 4.39509 12.6517 5.09835C13.3549 5.80161 13.75 6.75544 13.75 7.75V13C13.75 13.4142 13.4142 13.75 13 13.75C12.5858 13.75 12.25 13.4142 12.25 13V7.75C12.25 7.15326 12.0129 6.58097 11.591 6.15901C11.169 5.73705 10.5967 5.5 10 5.5H2.81066L5.28033 7.96967C5.57322 8.26256 5.57322 8.73744 5.28033 9.03033C4.98744 9.32322 4.51256 9.32322 4.21967 9.03033L0.46967 5.28033C0.176777 4.98744 0.176777 4.51256 0.46967 4.21967L4.21967 0.46967C4.51256 0.176777 4.98744 0.176777 5.28033 0.46967Z" fill="black"/>
</svg>
