<svg width="16" height="14" viewBox="0 0 16 14" fill="none" xmlns="http://www.w3.org/2000/svg">
<path d="M15.9162 11.0381L13.2749 13.809C13.2178 13.8691 13.1486 13.9172 13.0717 13.95C12.9947 13.9829 12.9117 13.9999 12.8277 14H0.306886C0.247169 14 0.188756 13.9829 0.138801 13.9509C0.0888471 13.9189 0.0495197 13.8733 0.0256332 13.8198C0.00174671 13.7662 -0.00566146 13.707 0.00431646 13.6494C0.0142944 13.5918 0.0412231 13.5383 0.0818086 13.4954L2.72013 10.7246C2.77726 10.6644 2.84644 10.6164 2.92339 10.5835C3.00031 10.5507 3.08335 10.5336 3.1673 10.5336H15.6882C15.7484 10.5323 15.8077 10.5486 15.8585 10.5803C15.9094 10.6119 15.9496 10.6576 15.9739 10.7115C15.9983 10.7655 16.0058 10.8253 15.9955 10.8834C15.9852 10.9415 15.9576 10.9954 15.9162 11.0381ZM13.2749 5.45712C13.2176 5.39721 13.1483 5.34938 13.0714 5.31652C12.9946 5.28368 12.9116 5.26651 12.8277 5.26609H0.306886C0.247169 5.26612 0.188756 5.28318 0.138801 5.31521C0.0888471 5.34722 0.0495197 5.39279 0.0256332 5.44634C0.00174671 5.49989 -0.00566146 5.55908 0.00431646 5.61669C0.0142944 5.67429 0.0412231 5.72781 0.0818086 5.77067L2.72013 8.54295C2.77747 8.60286 2.84671 8.65069 2.92359 8.68355C3.00048 8.71639 3.08341 8.73356 3.1673 8.73398H15.6882C15.7478 8.73367 15.8059 8.71639 15.8557 8.68428C15.9055 8.65215 15.9445 8.60657 15.9682 8.55307C15.9919 8.49958 15.9992 8.44049 15.9891 8.38302C15.9791 8.32555 15.9523 8.27217 15.9117 8.22941L13.2749 5.45712ZM0.306886 3.4665H12.8277C12.9117 3.46643 12.9947 3.44941 13.0717 3.41654C13.1486 3.38368 13.2178 3.33565 13.2749 3.27546L15.9162 0.504645C15.9576 0.461846 15.9852 0.408003 15.9955 0.34989C16.0058 0.291778 15.9983 0.23199 15.9739 0.178053C15.9496 0.124115 15.9094 0.0784371 15.8585 0.0467661C15.8077 0.015095 15.7484 -0.00115396 15.6882 6.37584e-05H3.1673C3.08335 0.000150214 3.00031 0.017158 2.92339 0.0500267C2.84644 0.0828952 2.77726 0.130919 2.72013 0.191105L0.0818086 2.96192C0.0412231 3.00478 0.0142944 3.0583 0.00431646 3.1159C-0.00566146 3.17351 0.00174671 3.2327 0.0256332 3.28625C0.0495197 3.3398 0.0888471 3.38537 0.138801 3.41738C0.188756 3.44941 0.247169 3.46647 0.306886 3.4665Z" fill="white"/>
</svg>
