<svg xmlns="http://www.w3.org/2000/svg" xmlns:xlink="http://www.w3.org/1999/xlink" version="1.1" width="256" height="256" viewBox="0 0 256 256" xml:space="preserve">
<g transform="translate(128 128) scale(0.72 0.72)" style="">
	<g style="stroke: none; stroke-width: 0; stroke-dasharray: none; stroke-linecap: butt; stroke-linejoin: miter; stroke-miterlimit: 10; fill: none; fill-rule: nonzero; opacity: 1;" transform="translate(-175.05 -175.05000000000004) scale(3.89 3.89)" >
	<path d="M 45 90 C 20.187 90 0 69.813 0 45 C 0 20.187 20.187 0 45 0 c 24.813 0 45 20.187 45 45 C 90 69.813 69.813 90 45 90 z M 45 7 C 24.047 7 7 24.047 7 45 s 17.047 38 38 38 s 38 -17.047 38 -38 S 65.953 7 45 7 z" style="stroke: none; stroke-width: 1; stroke-dasharray: none; stroke-linecap: butt; stroke-linejoin: miter; stroke-miterlimit: 10; fill: rgb(37,178,53); fill-rule: nonzero; opacity: 1;" transform=" matrix(1 0 0 1 0 0) " stroke-linecap="round" />
	<path d="M 42.245 62.755 c -1.021 0 -1.992 -0.445 -2.657 -1.222 L 22.121 41.159 c -1.258 -1.468 -1.088 -3.678 0.379 -4.936 c 1.466 -1.258 3.677 -1.089 4.935 0.379 L 42.162 53.78 l 20.334 -25.231 c 1.215 -1.506 3.417 -1.741 4.922 -0.529 c 1.505 1.214 1.742 3.417 0.529 4.922 L 44.97 61.451 c -0.653 0.81 -1.632 1.287 -2.672 1.304 C 42.28 62.755 42.262 62.755 42.245 62.755 z" style="stroke: none; stroke-width: 1; stroke-dasharray: none; stroke-linecap: butt; stroke-linejoin: miter; stroke-miterlimit: 10; fill: rgb(37,178,53); fill-rule: nonzero; opacity: 1;" transform=" matrix(1 0 0 1 0 0) " stroke-linecap="round" />
</g>
</g>
</svg>