<svg xmlns="http://www.w3.org/2000/svg" xmlns:xlink="http://www.w3.org/1999/xlink" version="1.1" width="256" height="256" viewBox="0 0 256 256" xml:space="preserve">
<g transform="translate(128 128) scale(0.72 0.72)" style="">
	<g style="stroke: none; stroke-width: 0; stroke-dasharray: none; stroke-linecap: butt; stroke-linejoin: miter; stroke-miterlimit: 10; fill: none; fill-rule: nonzero; opacity: 1;" transform="translate(-175.05 -175.05000000000004) scale(3.89 3.89)" >
	<path d="M 45 62.21 c -1.657 0 -3 -1.343 -3 -3 V 35.03 c 0 -1.657 1.343 -3 3 -3 c 1.657 0 3 1.343 3 3 v 24.18 C 48 60.867 46.657 62.21 45 62.21 z" style="stroke: none; stroke-width: 1; stroke-dasharray: none; stroke-linecap: butt; stroke-linejoin: miter; stroke-miterlimit: 10; fill: rgb(213,196,36); fill-rule: nonzero; opacity: 1;" transform=" matrix(1 0 0 1 0 0) " stroke-linecap="round" />
	<path d="M 45 71.52 c -0.79 0 -1.56 -0.319 -2.12 -0.88 C 42.32 70.08 42 69.31 42 68.52 c 0 -0.2 0.02 -0.39 0.06 -0.59 c 0.04 -0.189 0.09 -0.38 0.17 -0.56 c 0.07 -0.181 0.17 -0.351 0.28 -0.521 c 0.1 -0.16 0.23 -0.31 0.37 -0.45 c 0.14 -0.14 0.29 -0.26 0.45 -0.369 c 0.17 -0.11 0.34 -0.211 0.52 -0.28 c 0.18 -0.07 0.37 -0.13 0.56 -0.17 c 0.98 -0.2 2.01 0.12 2.71 0.819 c 0.56 0.561 0.88 1.33 0.88 2.12 s -0.32 1.561 -0.88 2.12 c -0.141 0.141 -0.29 0.271 -0.46 0.37 c -0.16 0.11 -0.33 0.21 -0.511 0.28 c -0.18 0.08 -0.37 0.13 -0.56 0.17 C 45.39 71.5 45.2 71.52 45 71.52 z" style="stroke: none; stroke-width: 1; stroke-dasharray: none; stroke-linecap: butt; stroke-linejoin: miter; stroke-miterlimit: 10; fill: rgb(213,196,36); fill-rule: nonzero; opacity: 1;" transform=" matrix(1 0 0 1 0 0) " stroke-linecap="round" />
	<path d="M 87 83.294 H 3 c -1.079 0 -2.075 -0.579 -2.608 -1.518 c -0.533 -0.938 -0.522 -2.089 0.03 -3.017 l 42 -70.588 C 42.963 7.263 43.942 6.706 45 6.706 s 2.037 0.557 2.578 1.466 l 42 70.588 c 0.552 0.928 0.563 2.079 0.029 3.017 C 89.074 82.715 88.079 83.294 87 83.294 z M 8.276 77.294 h 73.449 L 45 15.573 L 8.276 77.294 z" style="stroke: none; stroke-width: 1; stroke-dasharray: none; stroke-linecap: butt; stroke-linejoin: miter; stroke-miterlimit: 10; fill: rgb(213,196,36); fill-rule: nonzero; opacity: 1;" transform=" matrix(1 0 0 1 0 0) " stroke-linecap="round" />
</g>
</g>
</svg>